<svg width="111" height="24" viewBox="0 0 111 24" fill="none" xmlns="http://www.w3.org/2000/svg">
<path d="M105.927 18.0739C104.846 18.0739 104.123 17.5788 103.757 16.5888C103.407 15.5835 103.528 14.2278 104.123 12.5219L103.871 12.3848C103.018 14.3344 102.18 15.7739 101.358 16.703C100.535 17.6169 99.6748 18.0739 98.7762 18.0739C98.0907 18.0739 97.55 17.8454 97.154 17.3884C96.7732 16.9162 96.5828 16.2689 96.5828 15.4464C96.5828 14.4868 96.8722 13.4053 97.451 12.202C98.0298 10.9835 98.9132 9.61259 100.101 8.08941L99.9871 8.02087C99.8195 8.17318 99.5987 8.28742 99.3245 8.36358C99.0656 8.43974 98.7533 8.47782 98.3877 8.47782C98.3116 8.47782 98.2278 8.47782 98.1364 8.47782C98.0603 8.46259 97.9384 8.44736 97.7709 8.43213C97.5728 8.41689 97.4205 8.40928 97.3139 8.40928C97.2225 8.39405 97.1387 8.38643 97.0626 8.38643C96.7122 8.38643 96.4305 8.4702 96.2172 8.63775C96.004 8.79007 95.8136 9.0414 95.646 9.39173L95.2119 9.20895C95.4099 8.34073 95.6689 7.71623 95.9887 7.33543C96.3238 6.95464 96.7351 6.76424 97.2225 6.76424C97.3596 6.76424 97.5043 6.78709 97.6566 6.83279C97.8242 6.86325 98.0603 6.93941 98.3649 7.06126C98.6695 7.19835 98.9056 7.28974 99.0732 7.33543C99.2407 7.3659 99.4007 7.38113 99.553 7.38113C99.8119 7.38113 100.048 7.32782 100.261 7.2212C100.49 7.11457 100.665 6.96987 100.787 6.78709L101.267 7.10696C100.353 8.6606 99.652 10.1076 99.1646 11.448C98.6924 12.7884 98.4563 13.9232 98.4563 14.8523C98.4563 15.4311 98.5553 15.8729 98.7533 16.1775C98.9665 16.4669 99.2712 16.6116 99.6672 16.6116C100.276 16.6116 100.878 16.2156 101.472 15.4235C102.081 14.6315 102.79 13.2911 103.597 11.4023C103.582 11.1891 103.567 10.9758 103.551 10.7626C103.551 10.5341 103.551 10.2066 103.551 9.78014C103.551 8.79007 103.681 8.02848 103.94 7.49537C104.199 6.94702 104.572 6.67285 105.059 6.67285C105.333 6.67285 105.547 6.76424 105.699 6.94702C105.851 7.11457 105.927 7.34305 105.927 7.63245C105.927 7.92186 105.821 8.39405 105.608 9.04901C105.394 9.68875 105.097 10.458 104.717 11.3566C104.732 13.1083 104.907 14.4258 105.242 15.3093C105.592 16.1927 106.11 16.6345 106.796 16.6345C107.649 16.6345 108.395 16.0176 109.035 14.7838C109.69 13.5348 110.017 12.1563 110.017 10.6484C110.017 9.73444 109.834 9.08709 109.469 8.7063C109.103 8.3255 108.547 8.18842 107.801 8.29504L107.687 7.97517C107.809 7.59438 108.022 7.28212 108.326 7.03841C108.631 6.79471 108.959 6.67285 109.309 6.67285C109.857 6.67285 110.276 6.90133 110.566 7.35828C110.855 7.81524 111 8.48544 111 9.36888C111 11.5775 110.497 13.5805 109.492 15.3778C108.486 17.1752 107.298 18.0739 105.927 18.0739Z" fill="#0F0F0F"/>
<path d="M85.0986 13.6186C85.0986 11.6993 85.6698 10.0619 86.8122 8.7063C87.9698 7.35067 89.3711 6.67285 91.0162 6.67285C92.1433 6.67285 93.0649 7.08411 93.7808 7.90663C94.4967 8.71391 94.8546 9.78776 94.8546 11.1282C94.8546 13.0626 94.2834 14.7076 93.141 16.0633C91.9986 17.4037 90.6125 18.0739 88.9827 18.0739C87.8404 18.0739 86.9036 17.6702 86.1725 16.8629C85.4566 16.0404 85.0986 14.959 85.0986 13.6186ZM93.0039 11.4252C93.0039 10.1914 92.7755 9.22418 92.3185 8.52352C91.8768 7.80762 91.298 7.44967 90.5821 7.44967C89.5159 7.44967 88.64 8.05133 87.9546 9.25464C87.2692 10.4427 86.9264 11.7984 86.9264 13.3215C86.9264 14.5401 87.1549 15.5073 87.6119 16.2232C88.0688 16.9239 88.6629 17.2742 89.394 17.2742C90.445 17.2742 91.3056 16.6801 91.9758 15.4921C92.6612 14.2888 93.0039 12.9331 93.0039 11.4252Z" fill="#0F0F0F"/>
<path d="M81.4248 18.0739C81.044 18.0739 80.747 17.9596 80.5337 17.7311C80.3205 17.5027 80.2139 17.1828 80.2139 16.7715C80.2139 16.3755 80.3281 15.652 80.5566 14.601C80.8003 13.5348 81.5238 10.6027 82.7271 5.80463C82.8642 5.25629 82.9708 4.79933 83.047 4.43377C83.1231 4.06821 83.1765 3.75595 83.2069 3.49701C83.2831 2.9182 83.2526 2.51456 83.1155 2.28608C82.9784 2.05761 82.6433 1.92814 82.1102 1.89767L81.8132 1.87483L81.9274 1.28079C82.948 1.28079 83.6563 1.25032 84.0523 1.18939C84.4635 1.12847 84.852 1.01423 85.2175 0.84668L85.446 1.05231C85.3546 1.44834 85.2556 1.87483 85.149 2.33178C85.0424 2.78873 84.89 3.43609 84.692 4.27384C84.5702 4.76125 84.4788 5.1192 84.4178 5.34768C84.3721 5.57615 84.3265 5.77417 84.2808 5.94172C84.0218 7.03841 83.5496 8.97285 82.8642 11.745C82.194 14.5172 81.8589 16.0709 81.8589 16.406C81.8589 16.5431 81.8894 16.6497 81.9503 16.7258C82.0112 16.7868 82.095 16.8172 82.2016 16.8172C82.4453 16.8172 82.7423 16.604 83.0927 16.1775C83.443 15.751 83.7324 15.2484 83.9609 14.6695L84.4635 14.9209C83.9 16.1699 83.3897 17.0076 82.9327 17.4341C82.491 17.8606 81.9884 18.0739 81.4248 18.0739Z" fill="#0F0F0F"/>
<path d="M73.1966 13.5727C72.6939 13.2985 72.2979 12.9177 72.0085 12.4303C71.7343 11.9277 71.5972 11.3565 71.5972 10.7168C71.5972 9.5896 72.0313 8.63761 72.8995 7.86079C73.7677 7.06873 74.8416 6.67271 76.1211 6.67271C76.3952 6.67271 76.6618 6.69556 76.9207 6.74125C77.1949 6.78695 77.4615 6.8631 77.7204 6.96973C78.1012 6.17767 78.4972 5.59886 78.9085 5.2333C79.335 4.85251 79.7919 4.66211 80.2793 4.66211C80.5992 4.66211 80.8505 4.7992 81.0333 5.07337C81.2313 5.33231 81.3075 5.68264 81.2618 6.12436L81.0562 6.37569C80.4012 6.31476 79.8452 6.35284 79.3883 6.48993C78.9466 6.62701 78.5429 6.86311 78.1774 7.19821C78.6648 7.48761 79.0379 7.87602 79.2969 8.36344C79.5558 8.85086 79.6853 9.3992 79.6853 10.0085C79.6853 11.1204 79.2283 12.0648 78.3144 12.8416C77.4158 13.6184 76.3038 14.0068 74.9787 14.0068C74.7502 14.0068 74.5293 13.9916 74.3161 13.9611C74.1028 13.9154 73.8972 13.8621 73.6992 13.8012C73.486 13.9687 73.326 14.1439 73.2194 14.3267C73.128 14.4942 73.0823 14.6846 73.0823 14.8979C73.0823 15.1873 73.227 15.4386 73.5164 15.6519C73.8058 15.8499 74.4456 16.0936 75.4356 16.383C76.8826 16.8095 77.8423 17.236 78.3144 17.6625C78.7866 18.0889 79.0227 18.6221 79.0227 19.2618C79.0227 20.2823 78.4439 21.1353 77.2863 21.8207C76.1287 22.5214 74.773 22.8717 73.2194 22.8717C71.9095 22.8717 70.8737 22.6433 70.1121 22.1863C69.3505 21.7446 68.9697 21.1201 68.9697 20.3128C68.9697 19.5969 69.2744 18.9419 69.8836 18.3479C70.4777 17.7691 71.2926 17.3121 72.3283 16.977C72.0999 16.7942 71.9323 16.6038 71.8257 16.4058C71.7191 16.1926 71.6658 15.9489 71.6658 15.6747C71.6658 15.3091 71.7724 14.9664 71.9856 14.6466C72.1989 14.3267 72.6025 13.9687 73.1966 13.5727ZM75.9383 7.2896C75.1767 7.2896 74.5446 7.61708 74.0419 8.27205C73.5545 8.92702 73.3108 9.78761 73.3108 10.8538C73.3108 11.6459 73.486 12.2628 73.8363 12.7045C74.1866 13.1462 74.6817 13.3671 75.3214 13.3671C76.0982 13.3671 76.7303 13.0777 77.2177 12.4989C77.7204 11.9048 77.9717 11.1052 77.9717 10.0999C77.9717 9.24688 77.7889 8.56907 77.4234 8.06642C77.0578 7.54854 76.5628 7.2896 75.9383 7.2896ZM72.831 17.274C72.1608 17.5178 71.6353 17.8681 71.2545 18.325C70.8889 18.7972 70.7062 19.3303 70.7062 19.9244C70.7062 20.625 70.9575 21.1582 71.4601 21.5237C71.978 21.9045 72.7091 22.0949 73.6535 22.0949C74.7654 22.0949 75.6565 21.8969 76.3267 21.5009C77.0121 21.1048 77.3548 20.587 77.3548 19.9472C77.3548 19.536 77.2101 19.1856 76.9207 18.8962C76.6466 18.6068 76.1744 18.3555 75.5042 18.1423C75.3366 18.0813 74.9254 17.9595 74.2704 17.7767C73.6307 17.5939 73.1509 17.4264 72.831 17.274Z" fill="#0F0F0F"/>
<path d="M62.1639 9.02595C62.301 9.39151 62.4609 9.78754 62.6437 10.214C62.8417 10.6405 63.0702 11.1203 63.3292 11.6534C63.451 11.8819 63.5652 12.1104 63.6719 12.3389C63.7937 12.5673 63.908 12.7958 64.0146 13.0243C65.0503 11.6382 65.9795 10.6329 66.802 10.0084C67.6245 9.36866 68.4166 9.04879 69.1782 9.04879C69.5894 9.04879 69.9245 9.17826 70.1835 9.4372C70.4424 9.69615 70.5719 10.0008 70.5719 10.3511C70.5719 10.6557 70.4957 10.9299 70.3434 11.1736C70.1911 11.4021 69.9626 11.6001 69.658 11.7677L69.361 11.6763C69.2543 11.3259 69.102 11.0594 68.904 10.8766C68.706 10.6938 68.4775 10.6024 68.2186 10.6024C67.655 10.6024 67.0533 10.8461 66.4136 11.3336C65.7739 11.8058 65.0656 12.5369 64.2888 13.5269C64.9133 14.6693 65.4921 15.5071 66.0252 16.0402C66.5583 16.5733 67.0914 16.8399 67.6245 16.8399C68.0358 16.8399 68.4318 16.6038 68.8126 16.1316C69.2086 15.6594 69.5818 14.9511 69.9321 14.0067L70.4348 14.2352C69.9474 15.5147 69.4066 16.4743 68.8126 17.114C68.2186 17.7538 67.5712 18.0736 66.8706 18.0736C66.1394 18.0736 65.5073 17.8223 64.9742 17.3197C64.4411 16.817 63.847 15.9793 63.1921 14.8064C62.4762 15.8726 61.7146 16.6875 60.9073 17.2511C60.1 17.7995 59.2775 18.0736 58.4397 18.0736C57.5411 18.0736 56.8328 17.8223 56.3149 17.3197C55.797 16.8018 55.5381 16.1087 55.5381 15.2405C55.5381 14.1438 55.9493 13.1005 56.7719 12.1104C57.5944 11.1051 58.8358 10.1379 60.496 9.20873C60.2828 8.67561 60.1229 8.1882 60.0162 7.74647C59.9248 7.28952 59.8792 6.85541 59.8792 6.44415C59.8792 5.19515 60.2523 4.12892 60.9987 3.24547C61.7603 2.3468 62.7123 1.89746 63.8547 1.89746C64.7229 1.89746 65.4159 2.12594 65.9338 2.58289C66.4669 3.02461 66.7335 3.60342 66.7335 4.31932C66.7335 5.14184 66.3679 5.92627 65.6368 6.67263C64.9209 7.40376 63.7633 8.1882 62.1639 9.02595ZM63.6033 2.51435C62.9331 2.51435 62.3696 2.77329 61.9126 3.29117C61.4709 3.80905 61.25 4.4564 61.25 5.23323C61.25 5.67495 61.3109 6.16998 61.4328 6.71833C61.5547 7.25144 61.7374 7.8531 61.9811 8.5233C63.0017 7.99018 63.7861 7.35806 64.3345 6.62694C64.898 5.88058 65.1798 5.13422 65.1798 4.38786C65.1798 3.76336 65.0427 3.29879 64.7686 2.99415C64.5096 2.67428 64.1212 2.51435 63.6033 2.51435ZM60.6788 9.68853C59.5669 10.4197 58.7368 11.1889 58.1884 11.9961C57.6553 12.7882 57.3888 13.6336 57.3888 14.5322C57.3888 15.2177 57.5563 15.766 57.8914 16.1773C58.2265 16.5885 58.6835 16.7942 59.2623 16.7942C59.8715 16.7942 60.4884 16.5885 61.1129 16.1773C61.7374 15.766 62.3467 15.1567 62.9407 14.3495C62.6818 13.8773 62.4762 13.4889 62.3239 13.1842C62.1715 12.8644 62.0268 12.5597 61.8898 12.2703C61.5699 11.5849 61.3033 11.0289 61.0901 10.6024C60.8921 10.1759 60.755 9.87131 60.6788 9.68853Z" fill="#0F0F0F"/>
<path d="M38.9053 6.67061H40.2684L40.5365 8.63702H40.6706C40.9834 7.89217 41.4229 7.34098 41.989 6.98345C42.5551 6.61102 43.1956 6.4248 43.9107 6.4248C44.73 6.4248 45.4526 6.64826 46.0782 7.09517C46.7039 7.54209 47.1508 8.22735 47.419 9.15097H47.553C47.8212 8.21246 48.2383 7.52719 48.8044 7.09517C49.3854 6.64826 50.0707 6.4248 50.8602 6.4248C51.4114 6.4248 51.9179 6.52908 52.3797 6.73764C52.8564 6.93131 53.2661 7.2218 53.6087 7.60912C53.9513 7.99645 54.2195 8.48061 54.4132 9.06159C54.6068 9.62768 54.7037 10.2832 54.7037 11.028V17.7541H52.849V11.3408C52.849 10.1491 52.6404 9.2925 52.2233 8.7711C51.8062 8.2497 51.2401 7.989 50.525 7.989C49.6759 7.989 48.9981 8.32419 48.4916 8.99456C47.9851 9.65003 47.7318 10.6109 47.7318 11.8771V17.7541H45.8771V11.3408C45.8771 10.1491 45.6686 9.2925 45.2514 8.7711C44.8343 8.2497 44.2682 7.989 43.5532 7.989C42.704 7.989 42.0262 8.32419 41.5197 8.99456C41.0132 9.66493 40.76 10.6332 40.76 11.8995V17.7541H38.9053V6.67061Z" fill="#0F0F0F"/>
<path d="M31.1176 17.9776C30.5962 17.9776 30.112 17.9106 29.6651 17.7765C29.2182 17.6573 28.8234 17.4786 28.4808 17.2402C28.1531 16.987 27.8924 16.6816 27.6987 16.324C27.505 15.9665 27.4082 15.5568 27.4082 15.095C27.4082 14.1863 27.7806 13.4787 28.5255 12.9722C29.2852 12.4657 30.4621 12.0486 32.0561 11.7208C32.7116 11.5868 33.2553 11.4527 33.6873 11.3186C34.1193 11.1845 34.462 11.043 34.7152 10.8941C34.9685 10.7302 35.1398 10.5589 35.2292 10.3801C35.3335 10.1864 35.3856 9.97788 35.3856 9.75442C35.3856 9.42669 35.3037 9.15109 35.1398 8.92763C34.9908 8.70418 34.7823 8.52541 34.5141 8.39134C34.2609 8.24237 33.9629 8.13809 33.6203 8.0785C33.2777 8.01891 32.9127 7.98912 32.5254 7.98912C31.4528 7.98912 30.6483 8.19768 30.112 8.6148C29.5906 9.03191 29.2703 9.6427 29.1512 10.4471L27.6317 10.2684C27.7508 9.0766 28.2648 8.14554 29.1735 7.47517C30.0822 6.7899 31.2666 6.44727 32.7265 6.44727C33.233 6.44727 33.7469 6.49941 34.2683 6.60369C34.8046 6.70797 35.2813 6.90163 35.6984 7.18467C36.1305 7.45282 36.4805 7.82525 36.7487 8.30196C37.0168 8.77866 37.1509 9.38944 37.1509 10.1343V15.609C37.1509 15.7729 37.1882 15.9069 37.2626 16.0112C37.3371 16.1006 37.4638 16.1453 37.6425 16.1453H38.1788V17.7542H36.9721C36.4656 17.7542 36.0783 17.6797 35.8102 17.5307C35.542 17.3668 35.4079 17.0093 35.4079 16.4581C35.4079 16.3091 35.4228 16.1304 35.4526 15.9218C35.4824 15.6984 35.5346 15.4228 35.6091 15.095L35.475 15.0503C35.1026 15.9442 34.5588 16.6592 33.8438 17.1955C33.1287 17.7169 32.22 17.9776 31.1176 17.9776ZM31.4304 16.4358C32.6818 16.4358 33.6426 16.0559 34.313 15.2961C34.9983 14.5364 35.3782 13.367 35.4526 11.7879L35.3186 11.7432C34.9759 12.0858 34.5514 12.3614 34.0449 12.57C33.5384 12.7636 32.9872 12.9201 32.3913 13.0392C31.2293 13.2776 30.4323 13.5681 30.0003 13.9107C29.5683 14.2533 29.3523 14.6407 29.3523 15.0727C29.3523 15.2068 29.3746 15.3557 29.4193 15.5196C29.464 15.6835 29.5608 15.8324 29.7098 15.9665C29.8588 16.1006 30.0673 16.2123 30.3355 16.3017C30.6185 16.3911 30.9835 16.4358 31.4304 16.4358Z" fill="#0F0F0F"/>
<path d="M22.1764 17.9776C21.2826 17.9776 20.5005 17.8435 19.8301 17.5754C19.1598 17.2924 18.6011 16.905 18.1542 16.4134C17.7073 15.9218 17.3721 15.3334 17.1487 14.6481C16.9252 13.948 16.8135 13.1733 16.8135 12.3242C16.8135 11.4303 16.9327 10.6185 17.171 9.8885C17.4243 9.15854 17.7743 8.54031 18.2213 8.03381C18.6831 7.52731 19.2268 7.13998 19.8525 6.87183C20.4931 6.58879 21.2007 6.44727 21.9753 6.44727C22.7053 6.44727 23.3757 6.56644 23.9864 6.8048C24.6121 7.02825 25.1559 7.35599 25.6177 7.78801C26.0795 8.22002 26.437 8.74887 26.6903 9.37455C26.9584 10.0002 27.0925 10.7153 27.0925 11.5197C27.0925 11.8475 27.0701 12.2199 27.0254 12.637H18.7129C18.7873 14.0075 19.1449 14.9833 19.7854 15.5643C20.4409 16.1453 21.2752 16.4358 22.2882 16.4358C23.0479 16.4358 23.7183 16.2868 24.2993 15.9889C24.8952 15.6909 25.357 15.2291 25.6847 14.6034L26.9584 15.4973C26.4817 16.3017 25.8337 16.9199 25.0143 17.3519C24.2099 17.7691 23.2639 17.9776 22.1764 17.9776ZM25.2154 11.2069C25.1856 10.6259 25.0739 10.1343 24.8803 9.73208C24.7015 9.31496 24.4631 8.97977 24.1652 8.72652C23.8822 8.45837 23.5544 8.27216 23.182 8.16788C22.8245 8.0487 22.452 7.98912 22.0647 7.98912C21.1709 7.98912 20.4409 8.25726 19.8748 8.79356C19.3087 9.32986 18.9438 10.1343 18.7799 11.2069H25.2154Z" fill="#0F0F0F"/>
<path d="M13.583 1.84375H15.4377V17.7539H13.583V1.84375Z" fill="#0F0F0F"/>
<path d="M6.56665 23.0724C5.35999 23.0724 4.38423 22.8192 3.63937 22.3127C2.89452 21.8211 2.35077 21.1656 2.00814 20.3463L3.19246 19.4971C3.56489 20.1228 4.00435 20.607 4.51085 20.9496C5.01735 21.3071 5.70262 21.4859 6.56665 21.4859C7.65414 21.4859 8.48093 21.1507 9.04702 20.4803C9.62801 19.8249 9.9185 18.7076 9.9185 17.1285V15.6313H9.78443C9.3971 16.3911 8.88315 16.9795 8.24258 17.3966C7.6169 17.7989 6.85715 18 5.96332 18C5.21846 18 4.5332 17.8659 3.90752 17.5977C3.29674 17.3147 2.76789 16.9199 2.32098 16.4134C1.88896 15.9069 1.54633 15.2961 1.29308 14.5811C1.05472 13.866 0.935547 13.069 0.935547 12.1901C0.935547 11.3261 1.05472 10.544 1.29308 9.84381C1.54633 9.12874 1.88896 8.51796 2.32098 8.01146C2.76789 7.50496 3.29674 7.11764 3.90752 6.84949C4.5332 6.58134 5.21846 6.44727 5.96332 6.44727C6.90184 6.44727 7.70628 6.66327 8.37665 7.09529C9.04702 7.52731 9.57587 8.15298 9.96319 8.97233H10.0973L10.4101 6.67072H11.7732V17.5307C11.7732 17.7989 11.7508 18.1191 11.7062 18.4916C11.6615 18.8789 11.5721 19.2737 11.438 19.6759C11.3039 20.093 11.1177 20.5027 10.8794 20.9049C10.641 21.3071 10.3282 21.6647 9.94085 21.9775C9.55352 22.3052 9.08426 22.5659 8.53307 22.7596C7.98188 22.9682 7.3264 23.0724 6.56665 23.0724ZM2.85727 12.2124C2.85727 13.5532 3.17011 14.596 3.79579 15.3408C4.43637 16.0708 5.2706 16.4358 6.2985 16.4358C6.80501 16.4358 7.27426 16.3464 7.70628 16.1676C8.15319 15.974 8.54052 15.7058 8.86825 15.3632C9.19599 15.0057 9.44924 14.5736 9.62801 14.0671C9.82167 13.5606 9.9185 12.9796 9.9185 12.3242V12.1007C9.9185 11.4452 9.82167 10.8643 9.62801 10.3578C9.44924 9.85125 9.19599 9.42669 8.86825 9.08405C8.54052 8.72652 8.15319 8.45837 7.70628 8.27961C7.27426 8.10084 6.80501 8.01146 6.2985 8.01146C5.2706 8.01146 4.43637 8.37644 3.79579 9.1064C3.17011 9.83636 2.85727 10.8717 2.85727 12.2124Z" fill="#0F0F0F"/>
</svg>
