<svg width="984" height="3083" viewBox="0 0 984 3083" fill="none" xmlns="http://www.w3.org/2000/svg">
<path d="M14 3081L945.5 3081" stroke="black" stroke-width="2.24924"/>
<path d="M4.76837e-07 2L25 2" stroke="black" stroke-width="2.24924"/>
<path d="M4.76837e-07 31L25 31" stroke="black" stroke-width="2.24924"/>
<path d="M4.76837e-07 56L25 56" stroke="black" stroke-width="2.24924"/>
<path d="M4.76837e-07 82L25 82" stroke="black" stroke-width="2.24924"/>
<path d="M-1.07288e-06 238L50 238" stroke="black" stroke-width="2.24924"/>
<path d="M4.76837e-07 133L25 133" stroke="black" stroke-width="2.24924"/>
<path d="M4.76837e-07 161L25 161" stroke="black" stroke-width="2.24924"/>
<path d="M4.76837e-07 187L25 187" stroke="black" stroke-width="2.24924"/>
<path d="M4.76837e-07 212L25 212" stroke="black" stroke-width="2.24924"/>
<path d="M4.76837e-07 263L25 263" stroke="black" stroke-width="2.24924"/>
<path d="M4.76837e-07 292L25 292" stroke="black" stroke-width="2.24924"/>
<path d="M4.76837e-07 318L25 318" stroke="black" stroke-width="2.24924"/>
<path d="M4.76837e-07 343L25 343" stroke="black" stroke-width="2.24924"/>
<path d="M4.76837e-07 2L25 2" stroke="black" stroke-width="2.24924"/>
<path d="M4.76837e-07 31L25 31" stroke="black" stroke-width="2.24924"/>
<path d="M4.76837e-07 56L25 56" stroke="black" stroke-width="2.24924"/>
<path d="M0 82L25 82" stroke="black" stroke-width="2.24924"/>
<path d="M-1.07288e-06 238L50 238" stroke="black" stroke-width="2.24924"/>
<path d="M4.76837e-07 133L25 133" stroke="black" stroke-width="2.24924"/>
<path d="M4.76837e-07 161L25 161" stroke="black" stroke-width="2.24924"/>
<path d="M4.76837e-07 187L25 187" stroke="black" stroke-width="2.24924"/>
<path d="M4.76837e-07 212L25 212" stroke="black" stroke-width="2.24924"/>
<path d="M4.76837e-07 263L25 263" stroke="black" stroke-width="2.24924"/>
<path d="M4.76837e-07 292L25 292" stroke="black" stroke-width="2.24924"/>
<path d="M4.76837e-07 318L25 318" stroke="black" stroke-width="2.24924"/>
<path d="M4.76837e-07 343L25 343" stroke="black" stroke-width="2.24924"/>
<path d="M-1.07288e-06 498L50 498" stroke="black" stroke-width="2.24924"/>
<path d="M4.76837e-07 393L25 393" stroke="black" stroke-width="2.24924"/>
<path d="M4.76837e-07 421L25 421" stroke="black" stroke-width="2.24924"/>
<path d="M4.76837e-07 447L25 447" stroke="black" stroke-width="2.24924"/>
<path d="M4.76837e-07 472L25 472" stroke="black" stroke-width="2.24924"/>
<path d="M4.76837e-07 523L25 523" stroke="black" stroke-width="2.24924"/>
<path d="M4.76837e-07 552L25 552" stroke="black" stroke-width="2.24924"/>
<path d="M4.76837e-07 578L25 578" stroke="black" stroke-width="2.24924"/>
<path d="M4.76837e-07 603L25 603" stroke="black" stroke-width="2.24924"/>
<path d="M-1.07288e-06 498L50 498" stroke="black" stroke-width="2.24924"/>
<path d="M4.76837e-07 393L25 393" stroke="black" stroke-width="2.24924"/>
<path d="M4.76837e-07 421L25 421" stroke="black" stroke-width="2.24924"/>
<path d="M4.76837e-07 447L25 447" stroke="black" stroke-width="2.24924"/>
<path d="M4.76837e-07 472L25 472" stroke="black" stroke-width="2.24924"/>
<path d="M4.76837e-07 523L25 523" stroke="black" stroke-width="2.24924"/>
<path d="M4.76837e-07 552L25 552" stroke="black" stroke-width="2.24924"/>
<path d="M4.76837e-07 578L25 578" stroke="black" stroke-width="2.24924"/>
<path d="M4.76837e-07 603L25 603" stroke="black" stroke-width="2.24924"/>
<path d="M-1.07288e-06 759L50 759" stroke="black" stroke-width="2.24924"/>
<path d="M4.76837e-07 654L25 654" stroke="black" stroke-width="2.24924"/>
<path d="M4.76837e-07 683L25 683" stroke="black" stroke-width="2.24924"/>
<path d="M4.76837e-07 708L25 708" stroke="black" stroke-width="2.24924"/>
<path d="M4.76837e-07 734L25 734" stroke="black" stroke-width="2.24924"/>
<path d="M4.76837e-07 783L25 783" stroke="black" stroke-width="2.24924"/>
<path d="M4.76837e-07 813L25 813" stroke="black" stroke-width="2.24924"/>
<path d="M4.76837e-07 839L25 839" stroke="black" stroke-width="2.24924"/>
<path d="M4.76837e-07 863L25 863" stroke="black" stroke-width="2.24924"/>
<path d="M-1.07288e-06 759L50 759" stroke="black" stroke-width="2.24924"/>
<path d="M4.76837e-07 654L25 654" stroke="black" stroke-width="2.24924"/>
<path d="M4.76837e-07 683L25 683" stroke="black" stroke-width="2.24924"/>
<path d="M4.76837e-07 708L25 708" stroke="black" stroke-width="2.24924"/>
<path d="M4.76837e-07 734L25 734" stroke="black" stroke-width="2.24924"/>
<path d="M4.76837e-07 783L25 783" stroke="black" stroke-width="2.24924"/>
<path d="M4.76837e-07 813L25 813" stroke="black" stroke-width="2.24924"/>
<path d="M4.76837e-07 839L25 839" stroke="black" stroke-width="2.24924"/>
<path d="M4.76837e-07 863L25 863" stroke="black" stroke-width="2.24924"/>
<path d="M-1.07288e-06 1019L50 1019" stroke="black" stroke-width="2.24924"/>
<path d="M4.76837e-07 914L25 914" stroke="black" stroke-width="2.24924"/>
<path d="M4.76837e-07 943L25 943" stroke="black" stroke-width="2.24924"/>
<path d="M4.76837e-07 968L25 968" stroke="black" stroke-width="2.24924"/>
<path d="M4.76837e-07 994L25 994" stroke="black" stroke-width="2.24924"/>
<path d="M4.76837e-07 1045L25 1045" stroke="black" stroke-width="2.24924"/>
<path d="M4.76837e-07 1073L25 1073" stroke="black" stroke-width="2.24924"/>
<path d="M4.76837e-07 1099L25 1099" stroke="black" stroke-width="2.24924"/>
<path d="M4.76837e-07 1124L25 1124" stroke="black" stroke-width="2.24924"/>
<path d="M-1.07288e-06 1019L50 1019" stroke="black" stroke-width="2.24924"/>
<path d="M4.76837e-07 914L25 914" stroke="black" stroke-width="2.24924"/>
<path d="M4.76837e-07 943L25 943" stroke="black" stroke-width="2.24924"/>
<path d="M4.76837e-07 968L25 968" stroke="black" stroke-width="2.24924"/>
<path d="M4.76837e-07 994L25 994" stroke="black" stroke-width="2.24924"/>
<path d="M4.76837e-07 1045L25 1045" stroke="black" stroke-width="2.24924"/>
<path d="M4.76837e-07 1073L25 1073" stroke="black" stroke-width="2.24924"/>
<path d="M4.76837e-07 1099L25 1099" stroke="black" stroke-width="2.24924"/>
<path d="M4.76837e-07 1124L25 1124" stroke="black" stroke-width="2.24924"/>
<path d="M-1.07288e-06 1281L50 1281" stroke="black" stroke-width="2.24924"/>
<path d="M4.76837e-07 1175L25 1175" stroke="black" stroke-width="2.24924"/>
<path d="M4.76837e-07 1204L25 1204" stroke="black" stroke-width="2.24924"/>
<path d="M4.76837e-07 1230L25 1230" stroke="black" stroke-width="2.24924"/>
<path d="M4.76837e-07 1255L25 1255" stroke="black" stroke-width="2.24924"/>
<path d="M4.76837e-07 1304L25 1304" stroke="black" stroke-width="2.24924"/>
<path d="M4.76837e-07 1335L25 1335" stroke="black" stroke-width="2.24924"/>
<path d="M4.76837e-07 1359L25 1359" stroke="black" stroke-width="2.24924"/>
<path d="M4.76837e-07 1384L25 1384" stroke="black" stroke-width="2.24924"/>
<path d="M-1.07288e-06 1281L50 1281" stroke="black" stroke-width="2.24924"/>
<path d="M4.76837e-07 1175L25 1175" stroke="black" stroke-width="2.24924"/>
<path d="M4.76837e-07 1204L25 1204" stroke="black" stroke-width="2.24924"/>
<path d="M4.76837e-07 1230L25 1230" stroke="black" stroke-width="2.24924"/>
<path d="M4.76837e-07 1255L25 1255" stroke="black" stroke-width="2.24924"/>
<path d="M4.76837e-07 1304L25 1304" stroke="black" stroke-width="2.24924"/>
<path d="M4.76837e-07 1335L25 1335" stroke="black" stroke-width="2.24924"/>
<path d="M4.76837e-07 1359L25 1359" stroke="black" stroke-width="2.24924"/>
<path d="M4.76837e-07 1384L25 1384" stroke="black" stroke-width="2.24924"/>
<path d="M-1.07288e-06 1540L50 1540" stroke="black" stroke-width="2.24924"/>
<path d="M4.76837e-07 1435L25 1435" stroke="black" stroke-width="2.24924"/>
<path d="M4.76837e-07 1464L25 1464" stroke="black" stroke-width="2.24924"/>
<path d="M4.76837e-07 1489L25 1489" stroke="black" stroke-width="2.24924"/>
<path d="M4.76837e-07 1515L25 1515" stroke="black" stroke-width="2.24924"/>
<path d="M4.76837e-07 1566L25 1566" stroke="black" stroke-width="2.24924"/>
<path d="M4.76837e-07 1591L25 1591" stroke="black" stroke-width="2.24924"/>
<path d="M4.76837e-07 1620L25 1620" stroke="black" stroke-width="2.24924"/>
<path d="M4.76837e-07 1646L25 1646" stroke="black" stroke-width="2.24924"/>
<path d="M-1.07288e-06 1540L50 1540" stroke="black" stroke-width="2.24924"/>
<path d="M4.76837e-07 1435L25 1435" stroke="black" stroke-width="2.24924"/>
<path d="M4.76837e-07 1464L25 1464" stroke="black" stroke-width="2.24924"/>
<path d="M4.76837e-07 1489L25 1489" stroke="black" stroke-width="2.24924"/>
<path d="M4.76837e-07 1515L25 1515" stroke="black" stroke-width="2.24924"/>
<path d="M4.76837e-07 1566L25 1566" stroke="black" stroke-width="2.24924"/>
<path d="M4.76837e-07 1591L25 1591" stroke="black" stroke-width="2.24924"/>
<path d="M4.76837e-07 1620L25 1620" stroke="black" stroke-width="2.24924"/>
<path d="M4.76837e-07 1646L25 1646" stroke="black" stroke-width="2.24924"/>
<path d="M-1.07288e-06 1800L50 1800" stroke="black" stroke-width="2.24924"/>
<path d="M4.76837e-07 1697L25 1697" stroke="black" stroke-width="2.24924"/>
<path d="M4.76837e-07 1722L25 1722" stroke="black" stroke-width="2.24924"/>
<path d="M4.76837e-07 1751L25 1751" stroke="black" stroke-width="2.24924"/>
<path d="M4.76837e-07 1776L25 1776" stroke="black" stroke-width="2.24924"/>
<path d="M4.76837e-07 1826L25 1826" stroke="black" stroke-width="2.24924"/>
<path d="M4.76837e-07 1851L25 1851" stroke="black" stroke-width="2.24924"/>
<path d="M4.76837e-07 1880L25 1880" stroke="black" stroke-width="2.24924"/>
<path d="M4.76837e-07 1905L25 1905" stroke="black" stroke-width="2.24924"/>
<path d="M-1.07288e-06 1800L50 1800" stroke="black" stroke-width="2.24924"/>
<path d="M4.76837e-07 1697L25 1697" stroke="black" stroke-width="2.24924"/>
<path d="M4.76837e-07 1722L25 1722" stroke="black" stroke-width="2.24924"/>
<path d="M4.76837e-07 1751L25 1751" stroke="black" stroke-width="2.24924"/>
<path d="M4.76837e-07 1776L25 1776" stroke="black" stroke-width="2.24924"/>
<path d="M4.76837e-07 1826L25 1826" stroke="black" stroke-width="2.24924"/>
<path d="M4.76837e-07 1851L25 1851" stroke="black" stroke-width="2.24924"/>
<path d="M4.76837e-07 1880L25 1880" stroke="black" stroke-width="2.24924"/>
<path d="M4.76837e-07 1905L25 1905" stroke="black" stroke-width="2.24924"/>
<path d="M-1.07288e-06 2062L50 2062" stroke="black" stroke-width="2.24924"/>
<path d="M4.76837e-07 1957L25 1957" stroke="black" stroke-width="2.24924"/>
<path d="M4.76837e-07 1982L25 1982" stroke="black" stroke-width="2.24924"/>
<path d="M4.76837e-07 2011L25 2011" stroke="black" stroke-width="2.24924"/>
<path d="M4.76837e-07 2036L25 2036" stroke="black" stroke-width="2.24924"/>
<path d="M4.76837e-07 2087L25 2087" stroke="black" stroke-width="2.24924"/>
<path d="M4.76837e-07 2113L25 2113" stroke="black" stroke-width="2.24924"/>
<path d="M4.76837e-07 2141L25 2141" stroke="black" stroke-width="2.24924"/>
<path d="M4.76837e-07 2167L25 2167" stroke="black" stroke-width="2.24924"/>
<path d="M-1.07288e-06 2062L50 2062" stroke="black" stroke-width="2.24924"/>
<path d="M4.76837e-07 1957L25 1957" stroke="black" stroke-width="2.24924"/>
<path d="M4.76837e-07 1982L25 1982" stroke="black" stroke-width="2.24924"/>
<path d="M4.76837e-07 2011L25 2011" stroke="black" stroke-width="2.24924"/>
<path d="M4.76837e-07 2036L25 2036" stroke="black" stroke-width="2.24924"/>
<path d="M4.76837e-07 2087L25 2087" stroke="black" stroke-width="2.24924"/>
<path d="M4.76837e-07 2113L25 2113" stroke="black" stroke-width="2.24924"/>
<path d="M4.76837e-07 2141L25 2141" stroke="black" stroke-width="2.24924"/>
<path d="M4.76837e-07 2167L25 2167" stroke="black" stroke-width="2.24924"/>
<path d="M-1.07288e-06 2333L50 2333" stroke="black" stroke-width="2.24924"/>
<path d="M4.76837e-07 2228L25 2228" stroke="black" stroke-width="2.24924"/>
<path d="M4.76837e-07 2258L25 2258" stroke="black" stroke-width="2.24924"/>
<path d="M4.76837e-07 2282L25 2282" stroke="black" stroke-width="2.24924"/>
<path d="M4.76837e-07 2307L25 2307" stroke="black" stroke-width="2.24924"/>
<path d="M4.76837e-07 2358L25 2358" stroke="black" stroke-width="2.24924"/>
<path d="M4.76837e-07 2387L25 2387" stroke="black" stroke-width="2.24924"/>
<path d="M4.76837e-07 2412L25 2412" stroke="black" stroke-width="2.24924"/>
<path d="M4.76837e-07 2438L25 2438" stroke="black" stroke-width="2.24924"/>
<path d="M-1.07288e-06 2333L50 2333" stroke="black" stroke-width="2.24924"/>
<path d="M4.76837e-07 2228L25 2228" stroke="black" stroke-width="2.24924"/>
<path d="M4.76837e-07 2258L25 2258" stroke="black" stroke-width="2.24924"/>
<path d="M4.76837e-07 2282L25 2282" stroke="black" stroke-width="2.24924"/>
<path d="M4.76837e-07 2307L25 2307" stroke="black" stroke-width="2.24924"/>
<path d="M4.76837e-07 2358L25 2358" stroke="black" stroke-width="2.24924"/>
<path d="M4.76837e-07 2387L25 2387" stroke="black" stroke-width="2.24924"/>
<path d="M4.76837e-07 2412L25 2412" stroke="black" stroke-width="2.24924"/>
<path d="M4.76837e-07 2438L25 2438" stroke="black" stroke-width="2.24924"/>
<path d="M-1.07288e-06 2594L50 2594" stroke="black" stroke-width="2.24924"/>
<path d="M4.76837e-07 2489L25 2489" stroke="black" stroke-width="2.24924"/>
<path d="M4.76837e-07 2518L25 2518" stroke="black" stroke-width="2.24924"/>
<path d="M4.76837e-07 2543L25 2543" stroke="black" stroke-width="2.24924"/>
<path d="M4.76837e-07 2569L25 2569" stroke="black" stroke-width="2.24924"/>
<path d="M4.76837e-07 2620L25 2620" stroke="black" stroke-width="2.24924"/>
<path d="M4.76837e-07 2648L25 2648" stroke="black" stroke-width="2.24924"/>
<path d="M4.76837e-07 2674L25 2674" stroke="black" stroke-width="2.24924"/>
<path d="M4.76837e-07 2699L25 2699" stroke="black" stroke-width="2.24924"/>
<path d="M-1.07288e-06 2594L50 2594" stroke="black" stroke-width="2.24924"/>
<path d="M-1.07288e-06 2855L50 2855" stroke="black" stroke-width="2.24924"/>
<path d="M-1.07288e-06 2855L50 2855" stroke="black" stroke-width="2.24924"/>
<path d="M4.76837e-07 2489L25 2489" stroke="black" stroke-width="2.24924"/>
<path d="M4.76837e-07 2518L25 2518" stroke="black" stroke-width="2.24924"/>
<path d="M4.76837e-07 2543L25 2543" stroke="black" stroke-width="2.24924"/>
<path d="M4.76837e-07 2569L25 2569" stroke="black" stroke-width="2.24924"/>
<path d="M4.76837e-07 2620L25 2620" stroke="black" stroke-width="2.24924"/>
<path d="M4.76837e-07 2648L25 2648" stroke="black" stroke-width="2.24924"/>
<path d="M4.76837e-07 2674L25 2674" stroke="black" stroke-width="2.24924"/>
<path d="M-1.07288e-06 2854L50 2854" stroke="black" stroke-width="2.24924"/>
<path d="M4.76837e-07 2749L25 2749" stroke="black" stroke-width="2.24924"/>
<path d="M4.76837e-07 2778L25 2778" stroke="black" stroke-width="2.24924"/>
<path d="M4.76837e-07 2803L25 2803" stroke="black" stroke-width="2.24924"/>
<path d="M4.76837e-07 2829L25 2829" stroke="black" stroke-width="2.24924"/>
<path d="M4.76837e-07 2880L25 2880" stroke="black" stroke-width="2.24924"/>
<path d="M4.76837e-07 2908L25 2908" stroke="black" stroke-width="2.24924"/>
<path d="M4.76837e-07 2934L25 2934" stroke="black" stroke-width="2.24924"/>
<path d="M-1.07288e-06 2854L50 2854" stroke="black" stroke-width="2.24924"/>
<path d="M4.76837e-07 2749L25 2749" stroke="black" stroke-width="2.24924"/>
<path d="M4.76837e-07 2778L25 2778" stroke="black" stroke-width="2.24924"/>
<path d="M4.76837e-07 2803L25 2803" stroke="black" stroke-width="2.24924"/>
<path d="M4.76837e-07 2829L25 2829" stroke="black" stroke-width="2.24924"/>
<path d="M4.76837e-07 2880L25 2880" stroke="black" stroke-width="2.24924"/>
<path d="M4.76837e-07 2908L25 2908" stroke="black" stroke-width="2.24924"/>
<path d="M4.76837e-07 2934L25 2934" stroke="black" stroke-width="2.24924"/>
<path d="M4.76837e-07 2963L25 2963" stroke="black" stroke-width="2.24924"/>
<path d="M4.76837e-07 2989L25 2989" stroke="black" stroke-width="2.24924"/>
<path d="M4.76837e-07 2963L25 2963" stroke="black" stroke-width="2.24924"/>
<path d="M4.76837e-07 2989L25 2989" stroke="black" stroke-width="2.24924"/>
<path d="M4.76837e-07 3014L25 3014" stroke="black" stroke-width="2.24924"/>
<path d="M4.76837e-07 3040L25 3040" stroke="black" stroke-width="2.24924"/>
<path d="M4.76837e-07 3014L25 3014" stroke="black" stroke-width="2.24924"/>
<path d="M4.76837e-07 3040L25 3040" stroke="black" stroke-width="2.24924"/>
<path d="M4.76837e-07 2699L25 2699" stroke="black" stroke-width="2.24924"/>
<path d="M11 114L139 114" stroke="black" stroke-width="2.24924"/>
<path d="M11 374L139 374" stroke="black" stroke-width="2.24924"/>
<path d="M11 114L984 114" stroke="black" stroke-width="2.24924"/>
<path d="M11 1157L974.5 1157" stroke="black" stroke-width="2.24924"/>
<path d="M11 374L139 374" stroke="black" stroke-width="2.24924"/>
<path d="M11 636L139 636" stroke="black" stroke-width="2.24924"/>
<path d="M11 636L139 636" stroke="black" stroke-width="2.24924"/>
<path d="M11 895L139 895" stroke="black" stroke-width="2.24924"/>
<path d="M11 895L139 895" stroke="black" stroke-width="2.24924"/>
<path d="M11 1157L139 1157" stroke="black" stroke-width="2.24924"/>
<path d="M11 1157L139 1157" stroke="black" stroke-width="2.24924"/>
<path d="M11 1417L139 1417" stroke="black" stroke-width="2.24924"/>
<path d="M11 1417L139 1417" stroke="black" stroke-width="2.24924"/>
<path d="M11 1678L139 1678" stroke="black" stroke-width="2.24924"/>
<path d="M11 1678L139 1678" stroke="black" stroke-width="2.24924"/>
<path d="M11 1938L139 1938" stroke="black" stroke-width="2.24924"/>
<path d="M11 1938L139 1938" stroke="black" stroke-width="2.24924"/>
<path d="M11 2199L139 2199" stroke="black" stroke-width="2.24924"/>
<path d="M11 2199L139 2199" stroke="black" stroke-width="2.24924"/>
<path d="M11 2470L139 2470" stroke="black" stroke-width="2.24924"/>
<path d="M11 2470L139 2470" stroke="black" stroke-width="2.24924"/>
<path d="M11 2731L139 2731" stroke="black" stroke-width="2.24924"/>
<path d="M11 2731L139 2731" stroke="black" stroke-width="2.24924"/>
<path d="M899.076 78.6009C899.076 83.7194 898.157 87.8192 896.318 90.9002C894.48 93.9813 891.97 95.5218 888.79 95.5218C886.851 95.5218 885.274 94.8633 884.056 93.5464C882.839 92.2047 882.23 90.4157 882.23 88.1795C882.23 85.1233 883.174 82.4895 885.062 80.2781C886.951 78.0419 889.15 76.9237 891.659 76.9237C892.653 76.9237 893.535 77.1971 894.306 77.7437C895.076 78.2655 895.672 79.0109 896.095 79.9799C896.144 79.0606 896.169 78.5015 896.169 78.3028C896.169 78.0791 896.169 77.8679 896.169 77.6692C896.169 75.1348 895.697 73.1097 894.753 71.594C893.834 70.0784 892.554 69.3205 890.914 69.3205C890.193 69.3205 889.473 69.4324 888.752 69.656C888.032 69.8548 887.311 70.1653 886.591 70.5877L886.106 69.9541C886.901 69.2336 887.833 68.6621 888.901 68.2397C889.995 67.8173 891.075 67.6061 892.144 67.6061C894.38 67.6061 896.095 68.5503 897.287 70.4387C898.48 72.3022 899.076 75.0229 899.076 78.6009ZM895.647 83.6325C895.647 82.0919 895.275 80.8496 894.529 79.9054C893.809 78.9612 892.889 78.4891 891.771 78.4891C889.957 78.4891 888.417 79.4457 887.15 81.359C885.882 83.2473 885.249 85.4587 885.249 87.9931C885.249 89.8318 885.646 91.3351 886.442 92.5029C887.237 93.6458 888.218 94.2173 889.386 94.2173C890.355 94.2173 891.249 93.8695 892.069 93.1737C892.889 92.4532 893.597 91.4344 894.194 90.1175C894.641 89.1237 894.989 88.0552 895.237 86.9123C895.511 85.7445 895.647 84.6512 895.647 83.6325ZM914.457 93.5464C914.829 93.5464 915.252 93.2234 915.724 92.5774C916.221 91.9065 916.693 91.0369 917.14 89.9685L917.997 90.3784C917.525 91.4717 917.178 92.2171 916.954 92.6147C916.755 93.0122 916.556 93.3601 916.358 93.6583C915.91 94.3043 915.438 94.7764 914.941 95.0745C914.444 95.3727 913.91 95.5218 913.339 95.5218C912.717 95.5218 912.233 95.3354 911.885 94.9627C911.537 94.5652 911.363 94.031 911.363 93.3601C911.363 92.7389 911.674 91.4966 912.295 89.633C912.941 87.7695 913.289 86.7756 913.339 86.6514L912.817 86.5023C911.624 89.5585 910.357 91.832 909.015 93.3228C907.674 94.7888 906.22 95.5218 904.655 95.5218C903.263 95.5218 902.157 94.9627 901.338 93.8446C900.518 92.7016 900.108 91.2232 900.108 89.4094C900.108 88.0677 900.331 86.7011 900.778 85.3096C901.251 83.8934 901.897 82.5889 902.717 81.3962C903.686 79.9799 904.766 78.8867 905.959 78.1164C907.177 77.3213 908.394 76.9237 909.612 76.9237C910.779 76.9237 911.711 77.3213 912.407 78.1164C913.127 78.9115 913.55 80.0296 913.674 81.4708L914.531 77.4083C914.929 77.4828 915.252 77.4952 915.5 77.4455C915.749 77.3958 916.084 77.2219 916.507 76.9237H917.252L914.084 91.9065C913.96 92.4532 913.923 92.8632 913.972 93.1365C914.047 93.4098 914.208 93.5464 914.457 93.5464ZM912.705 82.6262C912.705 81.2596 912.444 80.216 911.922 79.4954C911.425 78.75 910.705 78.3773 909.761 78.3773C907.972 78.3773 906.406 79.4706 905.065 81.6571C903.748 83.8437 903.089 86.3035 903.089 89.0367C903.089 90.4033 903.288 91.4469 903.686 92.1674C904.108 92.8632 904.717 93.211 905.512 93.211C906.357 93.211 907.214 92.8507 908.084 92.1302C908.978 91.3847 909.81 90.3536 910.581 89.0367C911.227 87.9683 911.736 86.8502 912.109 85.6823C912.506 84.4897 912.705 83.471 912.705 82.6262ZM926.643 95.5218C924.556 95.5218 922.891 94.8882 921.649 93.621C920.407 92.3538 919.785 90.6021 919.785 88.3658C919.785 85.0115 920.717 82.2659 922.581 80.129C924.444 77.9922 926.767 76.9237 929.55 76.9237C931.041 76.9237 932.259 77.2965 933.203 78.0419C934.172 78.7624 934.656 79.7066 934.656 80.8744C934.656 82.1168 934.135 83.1604 933.091 84.0052C932.072 84.8251 930.643 85.3593 928.805 85.6078C930.171 85.6823 931.29 86.1172 932.159 86.9123C933.029 87.6825 933.464 88.664 933.464 89.8567C933.464 91.4469 932.793 92.7886 931.451 93.8819C930.134 94.9752 928.531 95.5218 926.643 95.5218ZM931.637 80.8744C931.637 80.0296 931.389 79.3712 930.892 78.8991C930.395 78.4021 929.712 78.1537 928.842 78.1537C927.426 78.1537 926.208 78.75 925.19 79.9427C924.171 81.1105 923.463 82.738 923.065 84.8251H926.084C927.923 84.8251 929.302 84.5021 930.221 83.8561C931.165 83.1852 931.637 82.1913 931.637 80.8744ZM926.718 94.2546C927.836 94.2546 928.73 93.8943 929.401 93.1737C930.072 92.4532 930.407 91.4717 930.407 90.2294C930.407 88.8876 930.01 87.8813 929.215 87.2104C928.445 86.5396 927.289 86.2041 925.749 86.2041H922.767C922.469 88.5149 922.692 90.4406 923.438 91.9811C924.183 93.4968 925.277 94.2546 926.718 94.2546ZM949.986 95.5218C949.216 95.5218 948.681 95.236 948.383 94.6646C948.085 94.0682 948.048 93.2234 948.271 92.1302L949.427 86.5023H941.935L940.184 95.0373C939.761 94.9876 939.314 94.9627 938.842 94.9627C938.37 94.9627 937.91 94.9876 937.463 95.0373L940.482 80.8744C940.631 80.1539 940.668 79.6694 940.594 79.4209C940.544 79.1476 940.345 79.0109 939.997 79.0109C939.65 79.0109 939.252 79.3339 938.805 79.9799C938.357 80.6011 937.935 81.4211 937.537 82.4398L936.68 82.0298C937.376 80.2657 938.097 78.9736 938.842 78.1537C939.612 77.3337 940.482 76.9237 941.451 76.9237C942.246 76.9237 942.793 77.2095 943.091 77.781C943.414 78.3525 943.464 79.1848 943.24 80.2781L942.234 85.086H949.725L951.328 77.4083C951.75 77.4828 952.197 77.5201 952.669 77.5201C953.141 77.5201 953.589 77.4828 954.011 77.4083L951.029 91.5711C950.88 92.2668 950.831 92.7513 950.88 93.0247C950.955 93.2731 951.166 93.3974 951.514 93.3974C951.862 93.3974 952.247 93.0868 952.669 92.4656C953.117 91.8444 953.551 91.0245 953.974 90.0057L954.831 90.4157C954.135 92.2047 953.402 93.5092 952.632 94.3291C951.862 95.1242 950.98 95.5218 949.986 95.5218ZM956.858 88.254C956.858 85.1233 957.79 82.4522 959.653 80.2408C961.542 78.0294 963.828 76.9237 966.511 76.9237C968.35 76.9237 969.853 77.5946 971.021 78.9364C972.189 80.2533 972.773 82.005 972.773 84.1915C972.773 87.3471 971.841 90.0306 969.977 92.242C968.114 94.4285 965.853 95.5218 963.194 95.5218C961.33 95.5218 959.802 94.8633 958.61 93.5464C957.442 92.2047 956.858 90.4406 956.858 88.254ZM969.754 84.676C969.754 82.6634 969.381 81.0856 968.635 79.9427C967.915 78.7749 966.971 78.1909 965.803 78.1909C964.064 78.1909 962.635 79.1724 961.517 81.1353C960.399 83.0734 959.84 85.2848 959.84 87.7695C959.84 89.7573 960.212 91.3351 960.958 92.5029C961.703 93.6458 962.672 94.2173 963.865 94.2173C965.579 94.2173 966.983 93.2483 968.076 91.3102C969.195 89.3473 969.754 87.1359 969.754 84.676Z" fill="#505050"/>
<path d="M744.249 1120.19C742.759 1120.19 741.442 1121.05 740.299 1122.76C739.181 1124.48 738.622 1126.49 738.622 1128.8C738.622 1130.76 739.044 1132.3 739.889 1133.42C740.758 1134.52 741.926 1135.06 743.392 1135.06C744.361 1135.06 745.256 1134.83 746.076 1134.35C746.896 1133.88 747.629 1133.19 748.275 1132.27L749.057 1132.68C748.337 1134.19 747.368 1135.38 746.15 1136.25C744.933 1137.1 743.616 1137.52 742.2 1137.52C740.286 1137.52 738.721 1136.8 737.503 1135.36C736.286 1133.89 735.677 1132.04 735.677 1129.81C735.677 1126.85 736.621 1124.3 738.51 1122.17C740.423 1120 742.647 1118.92 745.181 1118.92C746.548 1118.92 747.678 1119.26 748.573 1119.93C749.492 1120.6 749.952 1121.43 749.952 1122.43C749.952 1123.1 749.741 1123.64 749.318 1124.07C748.896 1124.49 748.299 1124.76 747.529 1124.89L747.045 1124.44C747.07 1123.1 746.834 1122.05 746.337 1121.31C745.864 1120.56 745.169 1120.19 744.249 1120.19ZM754.608 1128.13C754.583 1128.25 754.571 1128.4 754.571 1128.58C754.571 1128.73 754.571 1128.95 754.571 1129.25C754.571 1131.09 754.969 1132.52 755.764 1133.53C756.584 1134.55 757.702 1135.06 759.118 1135.06C760.062 1135.06 760.969 1134.83 761.839 1134.35C762.733 1133.88 763.591 1133.16 764.411 1132.19L765.081 1132.68C764.237 1134.24 763.181 1135.45 761.913 1136.29C760.671 1137.11 759.304 1137.52 757.814 1137.52C755.925 1137.52 754.422 1136.85 753.304 1135.51C752.211 1134.17 751.664 1132.37 751.664 1130.1C751.664 1127.12 752.583 1124.51 754.422 1122.28C756.261 1120.04 758.509 1118.92 761.168 1118.92C762.535 1118.92 763.665 1119.25 764.56 1119.89C765.454 1120.51 765.901 1121.33 765.901 1122.35C765.901 1123.99 764.92 1125.32 762.957 1126.34C760.994 1127.36 758.211 1127.96 754.608 1128.13ZM762.994 1122.35C762.994 1121.63 762.783 1121.07 762.361 1120.68C761.938 1120.28 761.342 1120.08 760.572 1120.08C759.23 1120.08 757.988 1120.73 756.845 1122.02C755.726 1123.28 755.018 1124.96 754.72 1127.05C757.255 1126.92 759.267 1126.45 760.758 1125.63C762.249 1124.79 762.994 1123.69 762.994 1122.35ZM781.101 1137.52C780.331 1137.52 779.797 1137.24 779.498 1136.66C779.2 1136.07 779.163 1135.22 779.387 1134.13L780.542 1128.5H773.051L771.299 1137.04C770.876 1136.99 770.429 1136.96 769.957 1136.96C769.485 1136.96 769.025 1136.99 768.578 1137.04L771.597 1122.87C771.746 1122.15 771.783 1121.67 771.709 1121.42C771.659 1121.15 771.46 1121.01 771.113 1121.01C770.765 1121.01 770.367 1121.33 769.92 1121.98C769.473 1122.6 769.05 1123.42 768.653 1124.44L767.795 1124.03C768.491 1122.27 769.212 1120.97 769.957 1120.15C770.727 1119.33 771.597 1118.92 772.566 1118.92C773.361 1118.92 773.908 1119.21 774.206 1119.78C774.529 1120.35 774.579 1121.18 774.355 1122.28L773.349 1127.09H780.84L782.443 1119.41C782.865 1119.48 783.312 1119.52 783.785 1119.52C784.257 1119.52 784.704 1119.48 785.126 1119.41L782.145 1133.57C781.996 1134.27 781.946 1134.75 781.996 1135.02C782.07 1135.27 782.281 1135.4 782.629 1135.4C782.977 1135.4 783.362 1135.09 783.785 1134.47C784.232 1133.84 784.667 1133.02 785.089 1132.01L785.946 1132.42C785.251 1134.2 784.518 1135.51 783.747 1136.33C782.977 1137.12 782.095 1137.52 781.101 1137.52ZM811.081 1134.88C811.081 1135.1 811.118 1135.27 811.193 1135.4C811.292 1135.5 811.441 1135.55 811.64 1135.55C812.062 1135.55 812.559 1135.19 813.131 1134.47C813.727 1133.75 814.212 1132.91 814.584 1131.97L815.404 1132.38C814.584 1134.27 813.777 1135.6 812.982 1136.37C812.187 1137.14 811.317 1137.52 810.373 1137.52C809.727 1137.52 809.217 1137.35 808.845 1137C808.497 1136.65 808.323 1136.18 808.323 1135.58C808.323 1135.14 808.41 1134.53 808.584 1133.76C808.758 1132.99 809.143 1131.67 809.739 1129.81C810.41 1127.67 810.845 1126.13 811.044 1125.19C811.267 1124.22 811.379 1123.43 811.379 1122.84C811.379 1122.19 811.23 1121.71 810.932 1121.38C810.658 1121.04 810.249 1120.86 809.702 1120.86C808.211 1120.86 806.708 1122.27 805.192 1125.07C803.676 1127.86 802.297 1131.84 801.055 1137.04C800.633 1136.99 800.185 1136.96 799.713 1136.96C799.241 1136.96 798.794 1136.99 798.372 1137.04C799.44 1132.52 800.198 1129.16 800.645 1126.97C801.092 1124.76 801.316 1123.37 801.316 1122.8C801.316 1122.13 801.204 1121.64 800.981 1121.35C800.782 1121.05 800.446 1120.9 799.974 1120.9C798.483 1120.9 796.98 1122.29 795.464 1125.07C793.949 1127.86 792.57 1131.84 791.327 1137.04C790.905 1136.99 790.458 1136.96 789.986 1136.96C789.514 1136.96 789.054 1136.99 788.607 1137.04L791.626 1122.87C791.8 1122.15 791.849 1121.67 791.775 1121.42C791.7 1121.15 791.501 1121.01 791.178 1121.01C790.831 1121.01 790.421 1121.35 789.948 1122.02C789.476 1122.66 789.042 1123.47 788.644 1124.44L787.787 1124.03C788.433 1122.34 789.153 1121.07 789.948 1120.23C790.768 1119.36 791.65 1118.92 792.595 1118.92C793.191 1118.92 793.638 1119.09 793.936 1119.41C794.259 1119.73 794.421 1120.2 794.421 1120.82C794.421 1121.27 794.322 1121.89 794.123 1122.69C793.949 1123.48 793.452 1125.25 792.632 1127.98L793.005 1128.13C794.62 1124.48 795.974 1122.03 797.067 1120.79C798.185 1119.54 799.428 1118.92 800.794 1118.92C801.763 1118.92 802.521 1119.21 803.068 1119.78C803.639 1120.33 803.925 1121.1 803.925 1122.09C803.925 1122.69 803.801 1123.42 803.552 1124.29C803.329 1125.14 802.931 1126.33 802.36 1127.87L802.732 1128.02C804.273 1124.49 805.602 1122.09 806.72 1120.82C807.863 1119.56 809.13 1118.92 810.522 1118.92C811.615 1118.92 812.485 1119.3 813.131 1120.04C813.777 1120.76 814.1 1121.76 814.1 1123.02C814.1 1123.72 813.951 1124.68 813.653 1125.89C813.379 1127.09 812.845 1128.94 812.05 1131.45C811.628 1132.71 811.354 1133.57 811.23 1134.02C811.131 1134.44 811.081 1134.73 811.081 1134.88ZM828.94 1137.52C828.12 1137.52 827.548 1137.24 827.225 1136.66C826.902 1136.07 826.853 1135.22 827.076 1134.13L828.195 1128.91H825.735L821.784 1134.65C821.113 1135.6 820.442 1136.32 819.771 1136.81C819.125 1137.29 818.479 1137.52 817.833 1137.52C817.187 1137.52 816.665 1137.3 816.268 1136.85C815.87 1136.4 815.672 1135.83 815.672 1135.14C815.672 1134.69 815.746 1134.24 815.895 1133.79C816.019 1133.32 816.293 1132.7 816.715 1131.93L817.535 1132.34C817.336 1132.79 817.187 1133.16 817.088 1133.46C816.988 1133.73 816.939 1133.98 816.939 1134.2C816.939 1134.48 817.001 1134.7 817.125 1134.88C817.274 1135.02 817.473 1135.1 817.721 1135.1C818.069 1135.1 818.392 1134.99 818.691 1134.76C819.014 1134.52 819.361 1134.13 819.734 1133.61L823.387 1128.35C822.194 1127.96 821.275 1127.4 820.629 1126.68C820.007 1125.93 819.697 1125.06 819.697 1124.07C819.697 1122.6 820.293 1121.42 821.486 1120.53C822.703 1119.61 824.331 1119.15 826.368 1119.15C826.815 1119.15 827.288 1119.16 827.785 1119.18C828.306 1119.18 829.039 1119.21 829.984 1119.26C830.828 1119.31 831.437 1119.35 831.81 1119.37C832.182 1119.37 832.518 1119.37 832.816 1119.37L829.946 1133.57C829.797 1134.32 829.76 1134.81 829.834 1135.06C829.909 1135.29 830.108 1135.4 830.431 1135.4C830.779 1135.4 831.164 1135.09 831.586 1134.47C832.033 1133.84 832.468 1133.02 832.891 1132.01L833.748 1132.42C833.077 1134.18 832.344 1135.47 831.549 1136.29C830.779 1137.11 829.909 1137.52 828.94 1137.52ZM827.039 1120.27C825.623 1120.27 824.53 1120.63 823.759 1121.35C822.989 1122.04 822.604 1123.01 822.604 1124.25C822.604 1125.42 822.939 1126.29 823.61 1126.86C824.281 1127.43 825.287 1127.72 826.629 1127.72H828.455L829.984 1120.53C829.487 1120.45 828.965 1120.39 828.418 1120.34C827.872 1120.29 827.412 1120.27 827.039 1120.27ZM846.81 1118.92C848.499 1118.92 849.841 1119.53 850.835 1120.75C851.854 1121.94 852.363 1123.59 852.363 1125.71C852.363 1128.91 851.444 1131.68 849.605 1134.02C847.766 1136.35 845.605 1137.52 843.12 1137.52C840.958 1137.52 839.306 1136.79 838.163 1135.32C837.02 1133.83 836.448 1131.68 836.448 1128.88C836.448 1126.89 836.722 1124.91 837.268 1122.95C837.815 1120.96 838.585 1119.17 839.579 1117.58C840.747 1115.77 842.138 1114.34 843.754 1113.3C845.393 1112.25 847.22 1111.62 849.232 1111.4L850.462 1111.28C851.655 1111.16 852.525 1110.99 853.071 1110.76C853.643 1110.54 854.239 1110.15 854.86 1109.61L855.419 1109.94C854.773 1111.43 854.028 1112.5 853.183 1113.15C852.338 1113.79 851.257 1114.08 849.94 1114L847.182 1113.89C845.766 1113.84 844.586 1114.19 843.642 1114.94C842.698 1115.66 841.927 1116.81 841.331 1118.4C841.033 1119.25 840.772 1120.07 840.548 1120.86C840.325 1121.66 840.126 1122.5 839.952 1123.4C840.846 1121.96 841.89 1120.85 843.083 1120.08C844.275 1119.31 845.518 1118.92 846.81 1118.92ZM849.344 1126.04C849.344 1124.3 849.034 1122.96 848.412 1122.02C847.791 1121.07 846.909 1120.6 845.766 1120.6C844.027 1120.6 842.499 1121.58 841.182 1123.55C839.865 1125.48 839.207 1127.72 839.207 1130.25C839.207 1132.12 839.579 1133.58 840.325 1134.65C841.07 1135.7 842.089 1136.22 843.381 1136.22C845.12 1136.22 846.549 1135.2 847.667 1133.16C848.785 1131.1 849.344 1128.73 849.344 1126.04ZM858.451 1133.72L857.407 1138.86C857.209 1139.78 857.072 1140.44 856.997 1140.84C856.923 1141.24 856.873 1141.57 856.848 1141.85C856.799 1142.42 856.861 1142.81 857.035 1143.04C857.209 1143.26 857.743 1143.47 858.637 1143.67L859.718 1143.9L859.457 1144.98C857.991 1144.88 856.488 1144.83 854.948 1144.83C853.407 1144.83 851.879 1144.88 850.363 1144.98L850.587 1143.9L851.78 1143.63C852.575 1143.49 853.096 1143.29 853.345 1143.04C853.593 1142.81 853.805 1142.42 853.978 1141.85C854.053 1141.6 854.14 1141.26 854.239 1140.84C854.364 1140.42 854.513 1139.76 854.687 1138.86L858.041 1122.87C858.19 1122.18 858.227 1121.69 858.153 1121.42C858.078 1121.15 857.904 1121.01 857.631 1121.01C857.258 1121.01 856.836 1121.33 856.364 1121.98C855.892 1122.63 855.457 1123.45 855.059 1124.44L854.202 1124.03C854.848 1122.34 855.569 1121.07 856.364 1120.23C857.184 1119.36 858.066 1118.92 859.01 1118.92C859.606 1118.92 860.078 1119.11 860.426 1119.48C860.799 1119.86 860.985 1120.36 860.985 1121.01C860.985 1121.36 860.923 1121.81 860.799 1122.35C860.675 1122.87 860.476 1123.58 860.203 1124.48C860.078 1124.85 859.892 1125.42 859.644 1126.19C859.395 1126.94 859.209 1127.51 859.085 1127.91L859.457 1128.06C860.675 1125 861.954 1122.71 863.296 1121.2C864.663 1119.68 866.141 1118.92 867.731 1118.92C869.172 1118.92 870.303 1119.47 871.123 1120.56C871.968 1121.66 872.39 1123.15 872.39 1125.04C872.39 1126.4 872.154 1127.79 871.682 1129.21C871.235 1130.63 870.601 1131.93 869.781 1133.12C868.812 1134.52 867.707 1135.6 866.464 1136.37C865.247 1137.14 864.004 1137.52 862.737 1137.52C861.594 1137.52 860.65 1137.2 859.905 1136.55C859.184 1135.91 858.699 1134.96 858.451 1133.72ZM859.718 1132.15C859.718 1133.32 859.979 1134.25 860.501 1134.95C861.047 1135.62 861.805 1135.96 862.774 1135.96C864.613 1135.96 866.166 1134.9 867.433 1132.79C868.725 1130.65 869.371 1128.18 869.371 1125.37C869.371 1124.05 869.11 1123.02 868.589 1122.28C868.092 1121.53 867.421 1121.16 866.576 1121.16C865.731 1121.16 864.874 1121.55 864.004 1122.32C863.159 1123.09 862.364 1124.18 861.619 1125.6C861.047 1126.69 860.588 1127.84 860.24 1129.06C859.892 1130.25 859.718 1131.29 859.718 1132.15ZM881.17 1137.52C878.984 1137.52 877.381 1136.83 876.362 1135.43C875.343 1134.02 875.169 1132.12 875.84 1129.73L877.778 1122.87C877.977 1122.18 878.052 1121.69 878.002 1121.42C877.952 1121.15 877.766 1121.01 877.443 1121.01C877.095 1121.01 876.685 1121.33 876.213 1121.98C875.741 1122.6 875.294 1123.41 874.871 1124.4L874.051 1124.03C874.673 1122.37 875.393 1121.1 876.213 1120.23C877.033 1119.36 877.915 1118.92 878.859 1118.92C879.431 1118.92 879.878 1119.09 880.201 1119.41C880.549 1119.73 880.723 1120.19 880.723 1120.79C880.723 1121.38 880.487 1122.37 880.015 1123.73C879.543 1125.1 878.797 1126.99 877.778 1129.4L878.077 1129.55C878.747 1128.01 879.605 1126.84 880.648 1126.04C881.717 1125.22 882.909 1124.81 884.226 1124.81C885.717 1124.81 886.922 1125.26 887.841 1126.15C888.761 1127.05 889.22 1128.28 889.22 1129.84C889.22 1131.88 888.388 1133.67 886.723 1135.21C885.083 1136.75 883.232 1137.52 881.17 1137.52ZM881.319 1136.25C882.686 1136.25 883.866 1135.61 884.86 1134.32C885.879 1133 886.388 1131.5 886.388 1129.81C886.388 1128.66 886.115 1127.79 885.568 1127.2C885.046 1126.58 884.288 1126.27 883.294 1126.27C882.002 1126.27 880.847 1126.89 879.828 1128.13C878.834 1129.37 878.337 1130.83 878.337 1132.49C878.337 1133.76 878.574 1134.7 879.046 1135.32C879.543 1135.94 880.3 1136.25 881.319 1136.25ZM911.063 1137.15C910.044 1137.12 908.901 1137.1 907.634 1137.07C906.367 1137.05 905.025 1137.04 903.609 1137.04C902.391 1137.04 901.162 1137.05 899.919 1137.07C898.702 1137.1 897.521 1137.12 896.378 1137.15L896.565 1136.18C897.385 1135.29 898.254 1134.37 899.174 1133.42C900.093 1132.45 901.211 1131.33 902.528 1130.07C904.988 1127.66 906.491 1126.18 907.038 1125.63C907.585 1125.06 908.069 1124.53 908.491 1124.03C909.783 1122.56 910.715 1121.25 911.287 1120.08C911.883 1118.89 912.181 1117.72 912.181 1116.58C912.181 1115.21 911.933 1114.19 911.436 1113.52C910.939 1112.82 910.193 1112.48 909.2 1112.48C907.808 1112.48 906.678 1113.08 905.808 1114.3C904.938 1115.49 904.491 1117.12 904.466 1119.18L903.833 1119.52C903.013 1119.47 902.391 1119.28 901.969 1118.96C901.547 1118.61 901.335 1118.13 901.335 1117.51C901.335 1116.79 901.596 1116 902.118 1115.16C902.64 1114.29 903.323 1113.53 904.168 1112.89C904.938 1112.31 905.758 1111.88 906.628 1111.58C907.522 1111.28 908.454 1111.13 909.423 1111.13C911.287 1111.13 912.765 1111.61 913.858 1112.55C914.952 1113.49 915.498 1114.8 915.498 1116.46C915.498 1117.78 914.977 1119.23 913.933 1120.82C912.889 1122.39 911.15 1124.32 908.715 1126.6C907.498 1127.72 905.696 1129.32 903.311 1131.41C900.926 1133.47 899.596 1134.63 899.323 1134.88L904.094 1134.69C905.162 1134.64 906.094 1134.55 906.889 1134.43C907.684 1134.3 908.38 1134.14 908.976 1133.94C909.697 1133.67 910.305 1133.32 910.802 1132.9C911.299 1132.45 911.846 1131.71 912.442 1130.66L912.927 1129.84L913.896 1130.1C913.275 1131.4 912.715 1132.65 912.219 1133.87C911.746 1135.09 911.361 1136.18 911.063 1137.15ZM920.553 1117.58C921.646 1115.54 922.963 1113.97 924.504 1112.85C926.069 1111.71 927.697 1111.13 929.386 1111.13C931.324 1111.13 932.852 1111.99 933.971 1113.71C935.114 1115.42 935.685 1117.69 935.685 1120.53C935.685 1122.49 935.449 1124.4 934.977 1126.27C934.53 1128.13 933.871 1129.83 933.002 1131.37C931.883 1133.31 930.554 1134.83 929.014 1135.92C927.473 1136.99 925.87 1137.52 924.206 1137.52C922.243 1137.52 920.69 1136.73 919.547 1135.14C918.429 1133.52 917.87 1131.36 917.87 1128.65C917.87 1126.64 918.093 1124.69 918.541 1122.8C919.013 1120.89 919.684 1119.15 920.553 1117.58ZM932.554 1119.15C932.554 1117.11 932.219 1115.51 931.548 1114.34C930.902 1113.15 930.02 1112.55 928.902 1112.55C926.765 1112.55 924.914 1114.35 923.348 1117.95C921.783 1121.56 921 1125.58 921 1130.03C921 1132.02 921.311 1133.53 921.932 1134.58C922.578 1135.6 923.51 1136.11 924.727 1136.11C926.889 1136.11 928.728 1134.42 930.244 1131.04C931.784 1127.63 932.554 1123.67 932.554 1119.15ZM950.32 1137.15C949.301 1137.12 948.158 1137.1 946.891 1137.07C945.623 1137.05 944.282 1137.04 942.865 1137.04C941.648 1137.04 940.418 1137.05 939.176 1137.07C937.958 1137.1 936.778 1137.12 935.635 1137.15L935.821 1136.18C936.641 1135.29 937.511 1134.37 938.43 1133.42C939.35 1132.45 940.468 1131.33 941.785 1130.07C944.244 1127.66 945.748 1126.18 946.294 1125.63C946.841 1125.06 947.325 1124.53 947.748 1124.03C949.04 1122.56 949.972 1121.25 950.543 1120.08C951.14 1118.89 951.438 1117.72 951.438 1116.58C951.438 1115.21 951.189 1114.19 950.692 1113.52C950.195 1112.82 949.45 1112.48 948.456 1112.48C947.065 1112.48 945.934 1113.08 945.064 1114.3C944.195 1115.49 943.748 1117.12 943.723 1119.18L943.089 1119.52C942.269 1119.47 941.648 1119.28 941.226 1118.96C940.803 1118.61 940.592 1118.13 940.592 1117.51C940.592 1116.79 940.853 1116 941.375 1115.16C941.896 1114.29 942.58 1113.53 943.425 1112.89C944.195 1112.31 945.015 1111.88 945.884 1111.58C946.779 1111.28 947.711 1111.13 948.68 1111.13C950.543 1111.13 952.022 1111.61 953.115 1112.55C954.208 1113.49 954.755 1114.8 954.755 1116.46C954.755 1117.78 954.233 1119.23 953.189 1120.82C952.146 1122.39 950.407 1124.32 947.972 1126.6C946.754 1127.72 944.953 1129.32 942.567 1131.41C940.182 1133.47 938.853 1134.63 938.579 1134.88L943.35 1134.69C944.418 1134.64 945.35 1134.55 946.145 1134.43C946.94 1134.3 947.636 1134.14 948.232 1133.94C948.953 1133.67 949.562 1133.32 950.059 1132.9C950.556 1132.45 951.102 1131.71 951.699 1130.66L952.183 1129.84L953.152 1130.1C952.531 1131.4 951.972 1132.65 951.475 1133.87C951.003 1135.09 950.618 1136.18 950.32 1137.15ZM971.14 1128.47C971.14 1130.95 970.208 1133.07 968.345 1134.84C966.481 1136.6 964.108 1137.5 961.226 1137.52C959.561 1137.55 958.108 1137.15 956.865 1136.33C955.648 1135.48 955.039 1134.49 955.039 1133.35C955.039 1132.65 955.263 1132.07 955.71 1131.6C956.182 1131.1 956.791 1130.8 957.536 1130.7L958.132 1130.85C958.108 1132.61 958.418 1133.96 959.064 1134.88C959.71 1135.79 960.642 1136.25 961.859 1136.25C963.574 1136.25 965.003 1135.53 966.146 1134.09C967.289 1132.65 967.86 1130.92 967.86 1128.91C967.86 1127.25 967.425 1125.91 966.556 1124.89C965.686 1123.87 964.419 1123.22 962.754 1122.95L961.636 1122.76L970.916 1113.89L968.643 1113.93C966.083 1113.98 964.295 1114.18 963.276 1114.53C962.257 1114.87 961.512 1115.58 961.04 1116.65L960.406 1118.1H959.213C959.536 1117.21 959.834 1116.12 960.108 1114.82C960.406 1113.51 960.592 1112.41 960.667 1111.54C961.686 1111.57 962.729 1111.59 963.798 1111.62C964.891 1111.64 965.972 1111.66 967.04 1111.66C968.233 1111.66 969.388 1111.64 970.506 1111.62C971.649 1111.59 972.693 1111.57 973.637 1111.54L973.19 1113.74L964.133 1121.98C966.17 1121.93 967.848 1122.5 969.165 1123.69C970.481 1124.89 971.14 1126.48 971.14 1128.47Z" fill="#505050"/>
<path d="M773.498 3061.52C771.411 3061.52 769.746 3060.89 768.503 3059.62C767.261 3058.35 766.64 3056.6 766.64 3054.37C766.64 3051.01 767.572 3048.27 769.435 3046.13C771.299 3043.99 773.622 3042.92 776.405 3042.92C777.896 3042.92 779.113 3043.3 780.057 3044.04C781.026 3044.76 781.511 3045.71 781.511 3046.87C781.511 3048.12 780.989 3049.16 779.946 3050.01C778.927 3050.83 777.498 3051.36 775.659 3051.61C777.026 3051.68 778.144 3052.12 779.014 3052.91C779.883 3053.68 780.318 3054.66 780.318 3055.86C780.318 3057.45 779.647 3058.79 778.306 3059.88C776.989 3060.98 775.386 3061.52 773.498 3061.52ZM778.492 3046.87C778.492 3046.03 778.243 3045.37 777.747 3044.9C777.25 3044.4 776.566 3044.15 775.697 3044.15C774.28 3044.15 773.063 3044.75 772.044 3045.94C771.025 3047.11 770.317 3048.74 769.92 3050.83H772.939C774.777 3050.83 776.156 3050.5 777.076 3049.86C778.02 3049.19 778.492 3048.19 778.492 3046.87ZM773.572 3060.25C774.69 3060.25 775.585 3059.89 776.256 3059.17C776.927 3058.45 777.262 3057.47 777.262 3056.23C777.262 3054.89 776.864 3053.88 776.069 3053.21C775.299 3052.54 774.144 3052.2 772.603 3052.2H769.622C769.323 3054.51 769.547 3056.44 770.292 3057.98C771.038 3059.5 772.131 3060.25 773.572 3060.25ZM786.591 3052.13C786.566 3052.25 786.554 3052.4 786.554 3052.58C786.554 3052.73 786.554 3052.95 786.554 3053.25C786.554 3055.09 786.951 3056.52 787.746 3057.53C788.566 3058.55 789.685 3059.06 791.101 3059.06C792.045 3059.06 792.952 3058.83 793.822 3058.35C794.716 3057.88 795.573 3057.16 796.393 3056.19L797.064 3056.68C796.219 3058.24 795.163 3059.45 793.896 3060.29C792.654 3061.11 791.287 3061.52 789.796 3061.52C787.908 3061.52 786.405 3060.85 785.287 3059.51C784.193 3058.17 783.647 3056.37 783.647 3054.1C783.647 3051.12 784.566 3048.51 786.405 3046.28C788.243 3044.04 790.492 3042.92 793.151 3042.92C794.517 3042.92 795.648 3043.25 796.542 3043.89C797.437 3044.51 797.884 3045.33 797.884 3046.35C797.884 3047.99 796.903 3049.32 794.94 3050.34C792.977 3051.36 790.194 3051.96 786.591 3052.13ZM794.977 3046.35C794.977 3045.63 794.766 3045.07 794.343 3044.68C793.921 3044.28 793.325 3044.08 792.554 3044.08C791.213 3044.08 789.97 3044.73 788.827 3046.02C787.709 3047.28 787.001 3048.96 786.703 3051.05C789.237 3050.92 791.25 3050.45 792.741 3049.63C794.232 3048.79 794.977 3047.69 794.977 3046.35ZM808.537 3044.19C807.046 3044.19 805.729 3045.05 804.586 3046.76C803.468 3048.48 802.909 3050.49 802.909 3052.8C802.909 3054.76 803.331 3056.3 804.176 3057.42C805.046 3058.52 806.214 3059.06 807.68 3059.06C808.649 3059.06 809.543 3058.83 810.363 3058.35C811.183 3057.88 811.916 3057.19 812.562 3056.27L813.345 3056.68C812.624 3058.19 811.655 3059.38 810.438 3060.25C809.22 3061.1 807.903 3061.52 806.487 3061.52C804.574 3061.52 803.008 3060.8 801.791 3059.36C800.573 3057.89 799.965 3056.04 799.965 3053.81C799.965 3050.85 800.909 3048.3 802.797 3046.17C804.71 3044 806.934 3042.92 809.469 3042.92C810.835 3042.92 811.966 3043.26 812.86 3043.93C813.779 3044.6 814.239 3045.43 814.239 3046.43C814.239 3047.1 814.028 3047.64 813.606 3048.07C813.183 3048.49 812.587 3048.76 811.817 3048.89L811.332 3048.44C811.357 3047.1 811.121 3046.05 810.624 3045.31C810.152 3044.56 809.456 3044.19 808.537 3044.19ZM829.145 3061.52C828.375 3061.52 827.841 3061.24 827.542 3060.66C827.244 3060.07 827.207 3059.22 827.431 3058.13L828.586 3052.5H821.095L819.343 3061.04C818.92 3060.99 818.473 3060.96 818.001 3060.96C817.529 3060.96 817.069 3060.99 816.622 3061.04L819.641 3046.87C819.79 3046.15 819.827 3045.67 819.753 3045.42C819.703 3045.15 819.504 3045.01 819.157 3045.01C818.809 3045.01 818.411 3045.33 817.964 3045.98C817.517 3046.6 817.094 3047.42 816.697 3048.44L815.839 3048.03C816.535 3046.27 817.256 3044.97 818.001 3044.15C818.771 3043.33 819.641 3042.92 820.61 3042.92C821.405 3042.92 821.952 3043.21 822.25 3043.78C822.573 3044.35 822.623 3045.18 822.399 3046.28L821.393 3051.09H828.884L830.487 3043.41C830.909 3043.48 831.356 3043.52 831.829 3043.52C832.301 3043.52 832.748 3043.48 833.17 3043.41L830.189 3057.57C830.04 3058.27 829.99 3058.75 830.04 3059.02C830.114 3059.27 830.325 3059.4 830.673 3059.4C831.021 3059.4 831.406 3059.09 831.829 3058.47C832.276 3057.84 832.711 3057.02 833.133 3056.01L833.99 3056.42C833.295 3058.2 832.562 3059.51 831.791 3060.33C831.021 3061.12 830.139 3061.52 829.145 3061.52ZM849.807 3059.55C850.18 3059.55 850.602 3059.22 851.074 3058.58C851.571 3057.91 852.044 3057.04 852.491 3055.97L853.348 3056.38C852.876 3057.47 852.528 3058.22 852.304 3058.61C852.106 3059.01 851.907 3059.36 851.708 3059.66C851.261 3060.3 850.789 3060.78 850.292 3061.07C849.795 3061.37 849.261 3061.52 848.689 3061.52C848.068 3061.52 847.583 3061.34 847.236 3060.96C846.888 3060.57 846.714 3060.03 846.714 3059.36C846.714 3058.74 847.024 3057.5 847.646 3055.63C848.292 3053.77 848.639 3052.78 848.689 3052.65L848.167 3052.5C846.975 3055.56 845.707 3057.83 844.366 3059.32C843.024 3060.79 841.57 3061.52 840.005 3061.52C838.614 3061.52 837.508 3060.96 836.688 3059.84C835.868 3058.7 835.458 3057.22 835.458 3055.41C835.458 3054.07 835.682 3052.7 836.129 3051.31C836.601 3049.89 837.247 3048.59 838.067 3047.4C839.036 3045.98 840.117 3044.89 841.31 3044.12C842.527 3043.32 843.745 3042.92 844.962 3042.92C846.13 3042.92 847.062 3043.32 847.757 3044.12C848.478 3044.91 848.9 3046.03 849.025 3047.47L849.882 3043.41C850.279 3043.48 850.602 3043.5 850.851 3043.45C851.099 3043.4 851.435 3043.22 851.857 3042.92H852.603L849.435 3057.91C849.31 3058.45 849.273 3058.86 849.323 3059.14C849.397 3059.41 849.559 3059.55 849.807 3059.55ZM848.056 3048.63C848.056 3047.26 847.795 3046.22 847.273 3045.5C846.776 3044.75 846.055 3044.38 845.111 3044.38C843.322 3044.38 841.757 3045.47 840.415 3047.66C839.098 3049.84 838.44 3052.3 838.44 3055.04C838.44 3056.4 838.639 3057.45 839.036 3058.17C839.458 3058.86 840.067 3059.21 840.862 3059.21C841.707 3059.21 842.564 3058.85 843.434 3058.13C844.328 3057.38 845.161 3056.35 845.931 3055.04C846.577 3053.97 847.087 3052.85 847.459 3051.68C847.857 3050.49 848.056 3049.47 848.056 3048.63ZM875.389 3061.15C874.371 3061.12 873.228 3061.1 871.961 3061.07C870.693 3061.05 869.352 3061.04 867.935 3061.04C866.718 3061.04 865.488 3061.05 864.246 3061.07C863.028 3061.1 861.848 3061.12 860.705 3061.15L860.891 3060.18C861.711 3059.29 862.581 3058.37 863.5 3057.42C864.419 3056.45 865.538 3055.33 866.855 3054.07C869.314 3051.66 870.818 3050.18 871.364 3049.63C871.911 3049.06 872.395 3048.53 872.818 3048.03C874.11 3046.56 875.042 3045.25 875.613 3044.08C876.209 3042.89 876.508 3041.72 876.508 3040.58C876.508 3039.21 876.259 3038.19 875.762 3037.52C875.265 3036.82 874.52 3036.48 873.526 3036.48C872.135 3036.48 871.004 3037.08 870.134 3038.3C869.265 3039.49 868.817 3041.12 868.793 3043.18L868.159 3043.52C867.339 3043.47 866.718 3043.28 866.295 3042.96C865.873 3042.61 865.662 3042.13 865.662 3041.51C865.662 3040.79 865.923 3040 866.445 3039.16C866.966 3038.29 867.65 3037.53 868.494 3036.89C869.265 3036.31 870.085 3035.88 870.954 3035.58C871.849 3035.28 872.781 3035.13 873.75 3035.13C875.613 3035.13 877.091 3035.61 878.185 3036.55C879.278 3037.49 879.825 3038.8 879.825 3040.46C879.825 3041.78 879.303 3043.23 878.259 3044.82C877.216 3046.39 875.476 3048.32 873.041 3050.6C871.824 3051.72 870.023 3053.32 867.637 3055.41C865.252 3057.47 863.923 3058.63 863.649 3058.88L868.42 3058.69C869.488 3058.64 870.42 3058.55 871.215 3058.43C872.01 3058.3 872.706 3058.14 873.302 3057.94C874.023 3057.67 874.632 3057.32 875.129 3056.9C875.626 3056.45 876.172 3055.71 876.768 3054.66L877.253 3053.84L878.222 3054.1C877.601 3055.4 877.042 3056.65 876.545 3057.87C876.073 3059.09 875.688 3060.18 875.389 3061.15ZM884.88 3041.58C885.973 3039.54 887.29 3037.97 888.83 3036.85C890.396 3035.71 892.023 3035.13 893.713 3035.13C895.651 3035.13 897.179 3035.99 898.297 3037.71C899.44 3039.42 900.011 3041.69 900.011 3044.53C900.011 3046.49 899.775 3048.4 899.303 3050.27C898.856 3052.13 898.198 3053.83 897.328 3055.37C896.21 3057.31 894.88 3058.83 893.34 3059.92C891.799 3060.99 890.197 3061.52 888.532 3061.52C886.569 3061.52 885.016 3060.73 883.873 3059.14C882.755 3057.52 882.196 3055.36 882.196 3052.65C882.196 3050.64 882.42 3048.69 882.867 3046.8C883.339 3044.89 884.01 3043.15 884.88 3041.58ZM896.881 3043.15C896.881 3041.11 896.545 3039.51 895.874 3038.34C895.228 3037.15 894.346 3036.55 893.228 3036.55C891.091 3036.55 889.24 3038.35 887.675 3041.95C886.109 3045.56 885.327 3049.58 885.327 3054.03C885.327 3056.02 885.637 3057.53 886.259 3058.58C886.905 3059.6 887.836 3060.11 889.054 3060.11C891.216 3060.11 893.054 3058.42 894.57 3055.04C896.11 3051.63 896.881 3047.67 896.881 3043.15ZM914.646 3061.15C913.627 3061.12 912.484 3061.1 911.217 3061.07C909.95 3061.05 908.608 3061.04 907.192 3061.04C905.974 3061.04 904.744 3061.05 903.502 3061.07C902.284 3061.1 901.104 3061.12 899.961 3061.15L900.148 3060.18C900.968 3059.29 901.837 3058.37 902.757 3057.42C903.676 3056.45 904.794 3055.33 906.111 3054.07C908.571 3051.66 910.074 3050.18 910.621 3049.63C911.167 3049.06 911.652 3048.53 912.074 3048.03C913.366 3046.56 914.298 3045.25 914.87 3044.08C915.466 3042.89 915.764 3041.72 915.764 3040.58C915.764 3039.21 915.516 3038.19 915.019 3037.52C914.522 3036.82 913.776 3036.48 912.782 3036.48C911.391 3036.48 910.26 3037.08 909.391 3038.3C908.521 3039.49 908.074 3041.12 908.049 3043.18L907.415 3043.52C906.595 3043.47 905.974 3043.28 905.552 3042.96C905.129 3042.61 904.918 3042.13 904.918 3041.51C904.918 3040.79 905.179 3040 905.701 3039.16C906.223 3038.29 906.906 3037.53 907.751 3036.89C908.521 3036.31 909.341 3035.88 910.211 3035.58C911.105 3035.28 912.037 3035.13 913.006 3035.13C914.87 3035.13 916.348 3035.61 917.441 3036.55C918.534 3037.49 919.081 3038.8 919.081 3040.46C919.081 3041.78 918.559 3043.23 917.516 3044.82C916.472 3046.39 914.733 3048.32 912.298 3050.6C911.08 3051.72 909.279 3053.32 906.894 3055.41C904.508 3057.47 903.179 3058.63 902.906 3058.88L907.676 3058.69C908.745 3058.64 909.676 3058.55 910.472 3058.43C911.267 3058.3 911.962 3058.14 912.559 3057.94C913.279 3057.67 913.888 3057.32 914.385 3056.9C914.882 3056.45 915.429 3055.71 916.025 3054.66L916.509 3053.84L917.478 3054.1C916.857 3055.4 916.298 3056.65 915.801 3057.87C915.329 3059.09 914.944 3060.18 914.646 3061.15ZM935.466 3052.47C935.466 3054.95 934.534 3057.07 932.671 3058.84C930.807 3060.6 928.434 3061.5 925.552 3061.52C923.887 3061.55 922.434 3061.15 921.192 3060.33C919.974 3059.48 919.365 3058.49 919.365 3057.35C919.365 3056.65 919.589 3056.07 920.036 3055.6C920.508 3055.1 921.117 3054.8 921.862 3054.7L922.459 3054.85C922.434 3056.61 922.745 3057.96 923.391 3058.88C924.037 3059.79 924.968 3060.25 926.186 3060.25C927.9 3060.25 929.329 3059.53 930.472 3058.09C931.615 3056.65 932.186 3054.92 932.186 3052.91C932.186 3051.25 931.752 3049.91 930.882 3048.89C930.012 3047.87 928.745 3047.22 927.08 3046.95L925.962 3046.76L935.243 3037.89L932.969 3037.93C930.41 3037.98 928.621 3038.18 927.602 3038.53C926.583 3038.87 925.838 3039.58 925.366 3040.65L924.732 3042.1H923.54C923.863 3041.21 924.161 3040.12 924.434 3038.82C924.732 3037.51 924.919 3036.41 924.993 3035.54C926.012 3035.57 927.055 3035.59 928.124 3035.62C929.217 3035.64 930.298 3035.66 931.366 3035.66C932.559 3035.66 933.714 3035.64 934.833 3035.62C935.976 3035.59 937.019 3035.57 937.963 3035.54L937.516 3037.74L928.459 3045.98C930.497 3045.93 932.174 3046.5 933.491 3047.69C934.808 3048.89 935.466 3050.48 935.466 3052.47Z" fill="#505050"/>
</svg>
